<?xml version="1.0" encoding="UTF-8"?>
<svg id="Layer_1" data-name="Layer 1" xmlns="http://www.w3.org/2000/svg" xmlns:xlink="http://www.w3.org/1999/xlink" viewBox="0 0 423.83 434.21">
  <defs>
    <style>
      .cls-1 {
        fill: #8290a2;
      }

      .cls-1, .cls-2, .cls-3 {
        stroke-width: 0px;
      }

      .cls-2 {
        fill: none;
      }

      .cls-3 {
        fill: #fff;
      }

      .cls-4 {
        clip-path: url(#clippath);
      }
    </style>
    <clipPath id="clippath">
      <rect class="cls-2" width="423.83" height="434.21"/>
    </clipPath>
  </defs>
  <g class="cls-4">
    <g id="Tang_Lambi" data-name="Tang Lambi">
      <path class="cls-3" d="m31.34,141.39c-1.15-.37-1.06-2.03.13-2.27l363.64-74.18c1.39-.28,1.96,1.72.62,2.2-1.85.67-3.69,1.35-5.54,2.02-5.03,1.84-10.07,3.68-15.1,5.51-7.48,2.73-14.95,5.46-22.43,8.19-9.17,3.35-18.35,6.7-27.52,10.05-10.13,3.7-20.25,7.39-30.38,11.09-10.33,3.77-20.67,7.55-31,11.32-9.8,3.58-19.59,7.15-29.39,10.73-8.51,3.11-17.03,6.22-25.54,9.33-10.31,3.77-20.63,7.51-30.95,11.25-.7.25-1.45.55-1.83,1.19-1.73,2.98,6.04,2.25,7.11,2.1,11.3-1.61,22.67-2.56,34.05-3.43,11.16-.85,22.29-1.95,33.43-3.07,1.31-.13,2.86-.17,3.69.85.62.76.59,1.84.54,2.82,0,15.56-2.18,31.12-2.18,46.67-.42,9.88-.82,19.76-1.22,29.64-.46,11.31-.92,22.62-1.37,33.92-.48,11.93-.96,23.86-1.45,35.8-.48,11.75-.96,23.5-1.46,35.25-.45,10.77-.91,21.53-1.39,32.3-.4,8.98-.81,17.96-1.26,26.94-.32,6.39-.65,12.77-1.06,19.16-.05.75-.1,1.5-.15,2.25-.1,1.37-2.05,1.49-2.32.14l-40.64-202.06s-2.71-14.32-13.55-16.6L31.34,141.39Z"/>
      <path class="cls-1" d="m369.88,80.06c23.56-10.16,29.72-10.25,28.33-8.43-.29.37-10,6.49-10.42,6.69l-120.46,56.38c-4.66,2.41-10.37,4.48-12.99,4.87-6.65.99-13.37,1.67-20.05,2.44-10.04,1.16-20.09,2.3-30.15,3.35-4.36.46-8.71,1.25-13.11,1-.49-.03-.59-.46-.3-.84.15-.2.38-.32.6-.44,2.09-1.1,4.36-1.72,6.59-2.47.03,0,.05-.02.08-.03.01,0,171.88-62.52,171.88-62.52Z"/>
      <path class="cls-1" d="m27.26,147.62c-1.5-.9-.45-3.19,1.21-2.65,0,0,151.4,48.75,151.99,49.03,10.79,5.31,8.92-.45,18.32,39.08,8.53,35.88,30.25,142.32,37.81,176.72.26,1.16-1.78,1.55-2.16.42-13.33-39.92-44.2-179.64-61.73-194.52-20.54-17.43-102.09-42.2-145.45-68.09Z"/>
    </g>
  </g>
</svg>